<svg xmlns="http://www.w3.org/2000/svg" viewBox="0 0 1200 630" role="img" aria-label="useless.exe — preview">
  <!-- Background -->
  <defs>
    <radialGradient id="g1" cx="20%" cy="0%" r="80%">
      <stop offset="0%" stop-color="#7c5cff" stop-opacity="0.35"/>
      <stop offset="60%" stop-color="#050b1f" stop-opacity="0"/>
    </radialGradient>
    <radialGradient id="g2" cx="100%" cy="20%" r="80%">
      <stop offset="0%" stop-color="#00e5ff" stop-opacity="0.3"/>
      <stop offset="60%" stop-color="#050b1f" stop-opacity="0"/>
    </radialGradient>
    <linearGradient id="g3" x1="0" y1="0" x2="1" y2="1">
      <stop offset="0%" stop-color="#050b1f"/>
      <stop offset="50%" stop-color="#0a1830"/>
      <stop offset="100%" stop-color="#0b3a4a"/>
    </linearGradient>
  </defs>

  <rect width="1200" height="630" fill="url(#g3)"/>
  <rect width="1200" height="630" fill="url(#g1)"/>
  <rect width="1200" height="630" fill="url(#g2)"/>

  <!-- Spider web (left side, decorative) -->
  <g transform="translate(200 315)" fill="none" stroke="#00e5ff" stroke-width="2" stroke-opacity="0.55">
    <line x1="0" y1="0" x2="0" y2="-160"/>
    <line x1="0" y1="0" x2="113" y2="-113"/>
    <line x1="0" y1="0" x2="160" y2="0"/>
    <line x1="0" y1="0" x2="113" y2="113"/>
    <line x1="0" y1="0" x2="0" y2="160"/>
    <line x1="0" y1="0" x2="-113" y2="113"/>
    <line x1="0" y1="0" x2="-160" y2="0"/>
    <line x1="0" y1="0" x2="-113" y2="-113"/>
    <polygon points="0,-60 42,-42 60,0 42,42 0,60 -42,42 -60,0 -42,-42"/>
    <polygon points="0,-110 78,-78 110,0 78,78 0,110 -78,78 -110,0 -78,-78"/>
    <polygon points="0,-160 113,-113 160,0 113,113 0,160 -113,113 -160,0 -113,-113"/>
    <circle r="4" fill="#ffb703" stroke="none"/>
  </g>

  <!-- Title block -->
  <g transform="translate(440 230)" font-family="Consolas, 'Courier New', monospace">
    <text x="0" y="0" font-size="100" font-weight="700" fill="#00e5ff">
      <tspan fill="#ffb703">[</tspan>useless<tspan fill="#7fff8a">~</tspan>exe<tspan fill="#ffb703">]</tspan>
    </text>
    <text x="6" y="60" font-size="28" fill="#8aa0c2">choose your waste of time_</text>

    <!-- Card chips -->
    <g transform="translate(0 130)" font-size="22" fill="#e6f1ff">
      <g>
        <rect x="0"   y="0" rx="10" ry="10" width="170" height="48" fill="rgba(0,229,255,0.08)" stroke="#00e5ff" stroke-opacity="0.5"/>
        <text x="22"  y="32">🏃 runaway</text>
      </g>
      <g>
        <rect x="190" y="0" rx="10" ry="10" width="180" height="48" fill="rgba(255,183,3,0.08)" stroke="#ffb703" stroke-opacity="0.5"/>
        <text x="212" y="32">🔢 counter</text>
      </g>
      <g>
        <rect x="390" y="0" rx="10" ry="10" width="160" height="48" fill="rgba(127,255,138,0.08)" stroke="#7fff8a" stroke-opacity="0.5"/>
        <text x="412" y="32">⏳ loader</text>
      </g>
      <g transform="translate(0 64)">
        <rect x="0"   y="0" rx="10" ry="10" width="170" height="48" fill="rgba(124,92,255,0.10)" stroke="#7c5cff" stroke-opacity="0.5"/>
        <text x="22"  y="32">🐱 facts</text>
      </g>
      <g transform="translate(0 64)">
        <rect x="190" y="0" rx="10" ry="10" width="200" height="48" fill="rgba(255,183,3,0.08)" stroke="#ffb703" stroke-opacity="0.5"/>
        <text x="212" y="32">🐈 cat_trail</text>
      </g>
      <g transform="translate(0 64)">
        <rect x="410" y="0" rx="10" ry="10" width="170" height="48" fill="rgba(124,92,255,0.10)" stroke="#7c5cff" stroke-opacity="0.5"/>
        <text x="432" y="32">🎮 add_me</text>
      </g>
    </g>
  </g>

  <!-- Footer -->
  <text x="600" y="595" text-anchor="middle"
        font-family="Consolas, 'Courier New', monospace"
        font-size="20" fill="#8aa0c2">
    * guarantee not guaranteed · powered by 🥔 · ✨ AI generated
  </text>
</svg>
